<svg xmlns="http://www.w3.org/2000/svg" viewBox="0 0 1440 320"><path fill="#4D77FF" fill-opacity="0.2" d="M0,192L26.7,181.3C53.3,171,107,149,160,160C213.3,171,267,213,320,240C373.3,267,427,277,480,250.7C533.3,224,587,160,640,117.3C693.3,75,747,53,800,74.7C853.3,96,907,160,960,165.3C1013.3,171,1067,117,1120,90.7C1173.3,64,1227,64,1280,96C1333.3,128,1387,192,1413,224L1440,256L1440,320L1413.3,320C1386.7,320,1333,320,1280,320C1226.7,320,1173,320,1120,320C1066.7,320,1013,320,960,320C906.7,320,853,320,800,320C746.7,320,693,320,640,320C586.7,320,533,320,480,320C426.7,320,373,320,320,320C266.7,320,213,320,160,320C106.7,320,53,320,27,320L0,320Z"></path></svg>