<?xml version="1.0" encoding="iso-8859-1"?>
<!-- Generator: Adobe Illustrator 19.0.0, SVG Export Plug-In . SVG Version: 6.00 Build 0)  -->
<svg version="1.1" id="Layer_1" xmlns="http://www.w3.org/2000/svg" xmlns:xlink="http://www.w3.org/1999/xlink" x="0px" y="0px"
	 viewBox="0 0 220.726 220.726" style="enable-background:new 0 0 220.726 220.726;" xml:space="preserve">
<g>
	<g>
		<g>
			<path d="M117.162,73.823c0.68,0.396,1.428,0.596,2.2,0.596c0.412,0,0.82-0.056,1.232-0.172c1.148-0.328,2.12-1.084,2.732-2.132
				c0.632-1.08,0.804-2.328,0.492-3.516c-0.3-1.144-1.024-2.1-2.032-2.688c-2.124-1.24-4.892-0.472-6.16,1.708
				c-0.628,1.076-0.804,2.324-0.492,3.512C115.43,72.279,116.15,73.235,117.162,73.823z M118.07,69.051
				c0.336-0.572,0.924-0.9,1.516-0.9c0.264,0,0.532,0.068,0.768,0.208c0.356,0.208,0.612,0.548,0.72,0.96
				c0.12,0.456,0.052,0.94-0.196,1.364l-0.004,0.004c-0.24,0.412-0.612,0.708-1.06,0.832c-0.416,0.112-0.848,0.072-1.224-0.148
				c-0.356-0.208-0.612-0.548-0.72-0.96C117.75,69.955,117.822,69.475,118.07,69.051z"/>
			<path d="M103.638,102.887c0-3.2-1.496-5.712-1.668-5.988l-1.928-3.116l-1.928,3.116c-0.172,0.276-1.668,2.788-1.668,5.988
				s1.496,5.712,1.668,5.988l1.928,3.116l1.928-3.116C102.138,108.599,103.638,106.087,103.638,102.887z M100.042,107.683
				c0,0-1.328-2.148-1.328-4.796c0-2.648,1.328-4.796,1.328-4.796s1.328,2.148,1.328,4.796S100.042,107.683,100.042,107.683z"/>
			<path d="M90.878,118.111c-2.264,2.264-2.98,5.096-3.056,5.412l-0.84,3.568l3.568-0.84c0.316-0.076,3.152-0.792,5.412-3.056
				c2.264-2.264,2.98-5.096,3.056-5.412l0.84-3.568l-3.568,0.84C95.978,115.131,93.142,115.847,90.878,118.111z M94.362,121.595
				c-1.872,1.872-4.328,2.452-4.328,2.452s0.58-2.456,2.452-4.328c1.872-1.872,4.328-2.452,4.328-2.452
				S96.234,119.723,94.362,121.595z"/>
			<path d="M109.202,118.111c-2.264-2.264-5.096-2.98-5.412-3.056l-3.568-0.84l0.84,3.568c0.076,0.316,0.792,3.152,3.056,5.412
				c2.264,2.264,5.096,2.98,5.412,3.056l3.568,0.84l-0.84-3.568C112.182,123.207,111.466,120.371,109.202,118.111z M105.722,121.591
				c-1.876-1.868-2.452-4.328-2.452-4.328s2.456,0.58,4.328,2.452s2.452,4.328,2.452,4.328S107.594,123.463,105.722,121.591z"/>
			<path d="M94.534,113.851c0.904,0,1.476-0.092,1.476-0.092l3.58-0.576l-2.064-2.968c-0.188-0.264-1.908-2.628-4.852-3.888
				c-1.764-0.752-3.52-0.912-4.684-0.912c-0.904,0-1.476,0.092-1.476,0.092l-3.58,0.576l2.064,2.968
				c0.188,0.264,1.908,2.628,4.852,3.888C91.61,113.691,93.37,113.851,94.534,113.851z M86.85,107.747c0,0,0.444-0.068,1.136-0.068
				c0.956,0,2.384,0.128,3.792,0.728c2.436,1.04,3.888,3.104,3.888,3.104s-0.444,0.068-1.136,0.068
				c-0.956,0-2.384-0.128-3.792-0.728C88.302,109.815,86.85,107.747,86.85,107.747z"/>
			<path d="M113.566,105.507c0,0-0.576-0.092-1.476-0.092c-1.164,0-2.92,0.16-4.684,0.912c-2.944,1.256-4.664,3.62-4.852,3.888
				l-2.084,2.964l3.6,0.58c0,0,0.576,0.092,1.476,0.092c1.164,0,2.92-0.16,4.684-0.912c2.944-1.256,4.664-3.62,4.852-3.888
				l2.084-2.964L113.566,105.507z M109.338,110.855c-1.408,0.604-2.84,0.728-3.792,0.728c-0.696,0-1.136-0.068-1.136-0.068
				s1.452-2.064,3.888-3.104c1.408-0.604,2.84-0.728,3.792-0.728c0.696,0,1.136,0.068,1.136,0.068S111.774,109.815,109.338,110.855z
				"/>
			<path d="M220.726,122.427c0-1.968-0.148-3.912-0.38-5.84c-0.004,0.004-0.008,0.012-0.012,0.016
				c0.052-0.304,0.112-0.604,0.112-0.912c0-2.84-2.324-5.392-6.42-7.664c-1.044-7.888-6.176-13.532-11.228-17.488
				c8.4-2.596,17.72-10.616,17.648-20.624c-0.08-10.624-8.468-20.384-19.188-22.872c2.388-6.512,1.52-13.08-2.528-18.732
				c-5.472-7.632-15.644-11.912-25.356-10.632c-9.156,1.2-16.408,6.98-20.624,16.36c-9.496-5.228-24.248-5.408-31.112,2.532
				c-3.968,4.58-5.964,10.728-6.06,17.516c-8.548-2.012-17.624-2.336-25.892-0.708c-1.448-0.236-2.884-0.388-4.28-0.296
				c0.784-1.788,1.224-3.812,1.28-5.984c0.144-5.696-2.28-11.444-6.492-15.372c-6.788-6.332-17.288-7.676-24.544-3.472
				c-3.412-6-9.084-9.676-15.872-10.208c-7.216-0.56-14.356,2.764-18.048,8.492c-2.176,3.376-4.904,10.36-0.188,20.568
				c-4.38,1.26-8.528,4.116-11.252,7.848c-1.352,1.852-2.228,3.8-2.684,5.772c-1.152,0.988-2.248,2.064-3.24,3.296
				c-9.884,12.288-1.412,31.504,9.788,44.072c-4.012,2.256-6.288,4.784-6.288,7.596c0,0.476,0.08,0.944,0.208,1.408
				c-0.196,1.764-0.348,3.532-0.348,5.332c0,0.692,0.048,1.38,0.076,2.068l-0.076,0.012c0.016,0.1,0.072,0.188,0.088,0.288
				c1.272,26.404,23.644,49.204,56.132,60.964c-1.348,0.964-2.46,2.244-2.46,3.916c0,8.012,27.756,13.592,52.668,13.592
				c24.912,0,52.664-5.584,52.664-13.592c0-1.656-1.084-2.92-2.416-3.88C197.918,173.695,220.726,149.859,220.726,122.427z
				 M214.21,112.639c1.448,1.048,2.232,2.076,2.232,3.048c0,1.232-1.208,2.548-3.496,3.884
				C213.638,117.291,214.09,114.975,214.21,112.639z M124.658,39.187c5.808-6.712,20.2-5.924,27.904-0.568l2.104,1.464l0.908-2.4
				c3.488-9.248,9.996-14.944,18.32-16.04c8.152-1.06,17.024,2.632,21.584,8.996c3.652,5.096,4.064,11.152,1.156,17.048
				l-1.252,2.544l2.816,0.328c9.824,1.148,18.18,10.024,18.248,19.384c0.068,9.3-11.264,17.232-18.696,17.48l-6.232,0.208
				l5.188,3.456c8.64,5.752,12.928,11.568,13.492,18.292c0.352,4.208-0.516,8.52-2.352,12.532
				c-4.492,1.684-10.68,3.336-18.412,4.816c-0.54,0.088-1.088,0.176-1.64,0.264c5.14-15.004,4.412-31.576-5.66-39.172
				c-14-10.544-39.656,0.964-52.408,17.888c-1.348,1.788-2.488,3.6-3.476,5.424c-0.276-8.584-4.64-16.144-11.228-20.788
				c17.092,0.42,30.976-7.528,35.592-10.528c2.524,0.324,4.848,0.524,6.828,0.524c10.616,0,13.844-4.056,14.664-5.544
				c1.024-1.852,0.916-3.912-0.264-5.248c-0.62-0.7-1.476-1.068-2.412-1.148c0.104-0.392,0.244-0.78,0.284-1.172
				c0.248-2.236-0.564-4.428-2.18-5.864c-1.476-1.312-3.608-1.956-5.84-1.788c-1.544,0.116-2.94,0.612-4.036,1.432
				c-1.384,1.032-2.256,2.6-2.28,4.088l2.264,0.036c0.012-0.776,0.568-1.704,1.376-2.308c0.944-0.712,2.072-0.928,2.848-0.988
				c1.624-0.124,3.144,0.316,4.16,1.224c1.068,0.948,1.604,2.412,1.436,3.916c-0.22,1.948-1.616,4.044-3.652,5.476
				c-1.688,1.184-3.756,1.968-6.504,2.456c-1.1,0.196-2.2,0.332-3.3,0.468c-0.456,0.056-0.912,0.14-1.368,0.2l-0.884-0.324
				c-4.464-1.64-15.888-11.188-20.224-14.956c-3.656-2.132-7.704-3.828-11.932-5.124C119.478,48.907,121.122,43.271,124.658,39.187z
				 M161.154,115.647c-3.696-2.78-8.308-3.884-12.98-3.1c-4.652,0.78-8.82,3.332-11.728,7.192
				c-2.736,3.632-3.828,7.904-3.624,12.036c-1.932,0.06-3.88,0.112-5.844,0.156c-0.208-0.724-0.376-1.46-0.508-2.2
				c-1.216-6.972,1.004-14.456,6.416-21.644c8.548-11.348,23.86-20.376,36.048-20.376c4.072,0,7.792,1.004,10.796,3.268
				c8.976,6.76,8.916,22.724,3.568,36.684c-4.824,0.688-10.02,1.316-15.532,1.868C167.834,124.195,165.598,118.995,161.154,115.647z
				 M165.482,129.755c-9.364,0.892-19.58,1.564-30.396,1.952c-0.196-3.636,0.764-7.396,3.176-10.604
				c2.556-3.392,6.212-5.636,10.288-6.32c0.856-0.144,1.708-0.212,2.548-0.212c3.156,0,6.172,0.992,8.692,2.892
				C163.706,120.411,165.622,125.027,165.482,129.755z M112.154,132.067c-8.868-0.032-17.464-0.26-25.672-0.652
				c-6.2-4.264-10.304-11.36-10.304-19.436c0-13.036,10.6-23.64,23.636-23.64c13.036,0,23.64,10.604,23.64,23.64
				C123.454,120.483,118.91,127.903,112.154,132.067z M122.986,132.003c-1.996,0.028-4.008,0.048-6.032,0.056
				c2.048-1.748,3.84-3.784,5.28-6.068c-0.004,1.488,0.08,2.964,0.336,4.42C122.666,130.951,122.85,131.471,122.986,132.003z
				 M79.65,93.791c0.476-0.128,0.888-0.268,1.344-0.4c-2.588,2.62-4.608,5.78-5.932,9.288c-0.316-0.728-0.604-1.46-0.844-2.204
				c-0.552-1.692-1.068-3.396-1.576-5.096C74.682,95.011,76.99,94.507,79.65,93.791z M71.818,92.639
				c-1.652-5.544-3.36-11.024-5.968-16.152c0.732-1.76,1.548-3.516,2.564-5.256c1.096-1.864,2.46-3.5,3.972-5
				c3.448,11.452,17.116,16.56,22.896,18.232c-2.504,1.452-8.156,4.38-16.372,6.592C76.158,91.795,73.838,92.287,71.818,92.639z
				 M153.354,77.883l0.208-0.152c0.24-0.04,0.48-0.084,0.72-0.116c1.14-0.14,2.28-0.28,3.42-0.484
				c3.084-0.552,5.436-1.452,7.412-2.832c1.396-0.984,2.512-2.212,3.312-3.54c0.708-0.208,1.332-0.14,1.712,0.288
				c0.544,0.612,0.536,1.652-0.02,2.656C168.606,76.443,163.418,78.767,153.354,77.883z M129.218,63.491
				c1.3,1.144,11.24,9.824,17.896,13.82c-7.08,4.256-26.732,13.956-47.548,6.032c-0.564-11.716,11.48-22.708,14.788-25.496
				C119.71,59.051,124.814,60.931,129.218,63.491z M110.81,57.167c-4.652,4.22-13.772,13.844-14.112,24.736
				c-5.048-1.416-19.472-6.432-21.904-17.784C83.846,57.067,97.778,55.043,110.81,57.167z M24.754,50.503l2.912-0.38l-1.416-2.568
				c-3.952-7.184-4.368-13.88-1.16-18.856c2.908-4.504,8.564-7.112,14.38-6.672c6.044,0.472,10.996,4.104,13.592,9.968l1.056,2.38
				l2.028-1.632c5.612-4.516,15.368-3.648,21.32,1.904c3.336,3.112,5.336,7.84,5.22,12.344c-0.084,3.224-1.248,5.944-3.284,7.652
				l-10.08,8.476l0.86-0.36c-2.008,1.888-3.768,4.036-5.188,6.472c-0.584,1.004-1.112,2.012-1.6,3.024
				c-0.588-0.9-1.176-1.804-1.844-2.672c-9.74-12.62-31.884-19.748-47.404-12.96C16.802,53.407,20.838,51.015,24.754,50.503z
				 M13.098,61.891c12.48-7.16,31.64-3.476,41.828,6.22c8.44,8.028,11.628,19.824,14.684,30.664c0.948,3.368,2.328,6.524,4.02,9.508
				c-0.172,1.212-0.288,2.436-0.288,3.696c0,0.264,0.036,0.52,0.044,0.78l-18.8-13.276L40.874,66.007l-2.1,0.86l12.364,30.176
				l-20.34-14.36l-5.38-15.876l-2.148,0.728l4.38,12.928L11.742,69.231l-1.304,1.852l42.296,29.864l0.012,0.032l0.02-0.008
				l20.872,14.736c0.076,0.548,0.172,1.088,0.284,1.624c-1.184-0.308-2.532-0.324-4.568,0c-6.256,1-12.052,2.892-18.508,2.928
				c-14.708,0.084-28.152-6.268-36.552-18.492C6.498,90.431-2.546,70.867,13.098,61.891z M16.91,110.995
				c3.168,3.128,6.44,5.696,9.508,7.372c10.252,5.596,22.148,6.912,33.588,5.156c5.372-0.824,10.552-2.836,15.704-0.688
				c1.428,3.156,3.456,5.976,5.94,8.328c-16.632-0.948-31.484-2.564-43.428-4.568c-16.988-3.312-26.356-7.444-26.356-10.904
				C11.866,114.207,13.618,112.603,16.91,110.995z M114.154,199.271c-28.768,0-47.928-6.692-48.676-9.524
				c0.004-0.008,0.456-0.952,3.772-2.2c13.664,4.3,28.896,6.72,44.972,6.72c16.044,0,31.248-2.408,44.892-6.692
				c3.108,1.168,3.664,2.064,3.704,2.064C162.054,192.587,142.902,199.271,114.154,199.271z M114.226,190.263
				c-51.664,0-94.496-25.436-101.476-58.376c10.86,8.032,36.492,9.472,51.7,10.312c1.564,0.084,2.984,0.164,4.228,0.244
				c16.828,1.06,34.188,1.904,51.732,1.904c20.272,0,40.792-1.128,61-4.356l-0.36-2.24c-37.468,5.984-76.084,4.704-112.232,2.428
				c-1.248-0.08-2.676-0.16-4.244-0.244c-14.964-0.828-44.092-2.44-52.416-11.484c-0.208-1.548-0.364-3.108-0.412-4.688
				c5.108,2.276,12.552,4.264,21.476,5.948c20.508,4.552,50.816,6.892,80.932,6.892c29.72,0,59.644-2.276,80.132-6.708
				c9.352-1.724,17.128-3.776,22.416-6.132C215.622,160.555,170.066,190.263,114.226,190.263z"/>
		</g>
	</g>
</g>
<g>
</g>
<g>
</g>
<g>
</g>
<g>
</g>
<g>
</g>
<g>
</g>
<g>
</g>
<g>
</g>
<g>
</g>
<g>
</g>
<g>
</g>
<g>
</g>
<g>
</g>
<g>
</g>
<g>
</g>
</svg>
